<?xml version="1.0" encoding="utf-8"?>
<!-- Generator: Adobe Illustrator 25.2.1, SVG Export Plug-In . SVG Version: 6.00 Build 0)  -->
<svg version="1.1" id="Camada_1" xmlns="http://www.w3.org/2000/svg" xmlns:xlink="http://www.w3.org/1999/xlink" x="0px" y="0px"
	 viewBox="0 0 200 72" style="enable-background:new 0 0 200 72;" xml:space="preserve">
<style type="text/css">
	.st0{fill:#E20E18;}
	.st1{fill:#AF1920;}
	.st2{fill:#878787;}
</style>
<g>
	<g>
		<path class="st0" d="M50.5,15v5.6l-19.1-5.5v6.7l19.1,4.5c0,0,0.1,0,0.1,0v4.4l-19.1-3.5V34l19.1,2.6V41l-19.1-1.5v6.4l19.1,0.9
			V52H25.8V7L50.5,15z"/>
	</g>
	<g>
		<path class="st1" d="M1.1,15v5.6l19.1-5.5v6.7l-19,4.5c0,0-0.1,0-0.1,0v4.4l19.1-3.5v6.6L1.1,36.6V41l19.1-1.5v6.4L1.1,46.8V52
			h24.7V7L1.1,15z"/>
	</g>
	<g>
		<g>
			<g>
				<path class="st2" d="M80.2,20.7v4.9h-7.5v25.6h-5.1V25.6h-7.4v-4.9H80.2L80.2,20.7z"/>
			</g>
			<g>
				<path class="st2" d="M72.7,51.6h-5.1c-0.2,0-0.4-0.2-0.4-0.4V26h-7c-0.2,0-0.4-0.2-0.4-0.4v-4.9c0-0.2,0.2-0.4,0.4-0.4h20.1
					c0.2,0,0.4,0.2,0.4,0.4v4.9c0,0.2-0.2,0.4-0.4,0.4h-7.1v25.2C73.1,51.5,72.9,51.6,72.7,51.6z M67.9,50.8h4.4V25.6
					c0-0.2,0.2-0.4,0.4-0.4h7.1v-4.1H60.6v4.1h7c0.2,0,0.4,0.2,0.4,0.4L67.9,50.8L67.9,50.8z"/>
			</g>
		</g>
		<g>
			<g>
				<path class="st2" d="M85.5,51.2V20.7h20.3v4.6H90.6v8.2h13.5v4.8H90.6v8.1h15.7v4.8L85.5,51.2L85.5,51.2z"/>
			</g>
			<g>
				<path class="st2" d="M106.3,51.6H85.5c-0.2,0-0.4-0.2-0.4-0.4V20.7c0-0.2,0.2-0.4,0.4-0.4h20.3c0.2,0,0.4,0.2,0.4,0.4v4.6
					c0,0.2-0.2,0.4-0.4,0.4H91v7.4h13.1c0.2,0,0.4,0.2,0.4,0.4v4.8c0,0.2-0.2,0.4-0.4,0.4H91v7.3h15.3c0.2,0,0.4,0.2,0.4,0.4v4.8
					C106.7,51.5,106.6,51.6,106.3,51.6z M85.9,50.8h20.1v-4H90.6c-0.2,0-0.4-0.2-0.4-0.4v-8.1c0-0.2,0.2-0.4,0.4-0.4h13.1v-4H90.6
					c-0.2,0-0.4-0.2-0.4-0.4v-8.2c0-0.2,0.2-0.4,0.4-0.4h14.8v-3.9H85.9L85.9,50.8L85.9,50.8z"/>
			</g>
		</g>
		<g>
			<g>
				<path class="st2" d="M111.4,19.4c0.1,0.2,0.4,0.6,0.9,1.3c0.5,0.7,1.1,1.5,1.8,2.5c0.7,1,1.5,2.1,2.4,3.3
					c0.9,1.2,1.8,2.4,2.7,3.7c0.9,1.2,1.8,2.5,2.7,3.6c0.9,1.2,1.6,2.3,2.3,3.2c0.7,1,1.3,1.8,1.8,2.5s0.8,1.1,0.9,1.2
					c0.1-0.1,0.3-0.4,0.7-1.1c0.4-0.6,1-1.4,1.7-2.4c0.7-0.9,1.5-2,2.3-3.2s1.8-2.5,2.7-3.7c0.9-1.3,1.8-2.5,2.7-3.7
					c0.9-1.2,1.7-2.3,2.4-3.3c0.7-1,1.4-1.9,1.9-2.6c0.5-0.7,0.8-1.1,1-1.3v31.9h-5.5V35.7c0-0.2,0-0.5,0.1-0.7
					c0.1-0.3,0.1-0.4,0.1-0.5L126.8,49c-0.1-0.2-0.5-0.6-1-1.4s-1.2-1.6-1.9-2.7c-0.7-1-1.5-2.1-2.4-3.3c-0.8-1.2-1.6-2.3-2.4-3.3
					c-0.7-1-1.4-1.9-1.9-2.6c-0.5-0.7-0.8-1.1-0.9-1.2c0,0.1,0,0.2,0.1,0.5s0.1,0.5,0.1,0.7v15.6h-5.1L111.4,19.4L111.4,19.4z"/>
			</g>
			<g>
				<path class="st2" d="M142.2,51.6h-5.5c-0.2,0-0.4-0.2-0.4-0.4V36l-9.2,13.2c-0.1,0.1-0.2,0.2-0.3,0.2c-0.1,0-0.2,0-0.3-0.1
					c-0.1-0.2-0.5-0.6-1-1.4c-0.5-0.8-1.2-1.6-1.9-2.7c-0.8-1-1.5-2.1-2.4-3.3c-0.8-1.2-1.6-2.3-2.4-3.3l-1.9-2.6v15.2
					c0,0.2-0.2,0.4-0.4,0.4h-5.1c-0.2,0-0.4-0.2-0.4-0.4V19.4c0-0.2,0.1-0.3,0.3-0.4c0.2,0,0.3,0,0.4,0.1c0.1,0.2,0.4,0.6,0.9,1.3
					c0.5,0.7,1.1,1.5,1.8,2.5c0.7,1,1.5,2.1,2.4,3.3l5.3,7.3c0.9,1.2,1.6,2.3,2.3,3.2c0.7,1,1.3,1.8,1.8,2.4
					c0.2,0.3,0.4,0.6,0.6,0.8c0.1-0.2,0.3-0.4,0.4-0.6c0.4-0.6,1-1.4,1.7-2.4c0.7-0.9,1.5-2,2.3-3.2s1.8-2.5,2.7-3.7
					c0.9-1.3,1.8-2.5,2.7-3.7c0.9-1.2,1.7-2.3,2.4-3.3c0.7-1,1.4-1.8,1.9-2.6l1-1.3c0.1-0.1,0.3-0.2,0.4-0.1
					c0.2,0.1,0.3,0.2,0.3,0.4v31.9C142.6,51.5,142.5,51.6,142.2,51.6z M137.2,50.8h4.7V20.6l-0.2,0.3c-0.5,0.7-1.1,1.5-1.9,2.6
					c-0.7,1-1.5,2.1-2.4,3.3c-0.9,1.2-1.8,2.5-2.7,3.7c-0.9,1.3-1.8,2.5-2.7,3.7s-1.6,2.3-2.3,3.2c-0.7,0.9-1.2,1.7-1.7,2.4
					c-0.4,0.6-0.7,1-0.7,1.1c-0.1,0.2-0.5,0.2-0.7,0c-0.1-0.2-0.4-0.6-0.9-1.2c-0.5-0.7-1.1-1.5-1.8-2.5s-1.5-2.1-2.3-3.2l-5.3-7.3
					c-0.9-1.2-1.7-2.3-2.4-3.3c-0.7-1-1.3-1.8-1.8-2.5c-0.1-0.1-0.1-0.2-0.2-0.3v30.2h4.4V35.7c0-0.2,0-0.4-0.1-0.6
					c-0.1-0.4-0.1-0.5-0.1-0.5c0-0.2,0.1-0.3,0.3-0.4c0.2,0,0.4,0,0.4,0.2c0,0,0.1,0.2,0.8,1.2l1.9,2.6c0.7,1,1.5,2.1,2.4,3.3
					c0.8,1.2,1.6,2.3,2.4,3.3c0.8,1,1.4,1.9,1.9,2.7c0.2,0.3,0.5,0.7,0.7,0.9l9.8-14.1c0.1-0.1,0.3-0.2,0.4-0.2
					c0.2,0,0.3,0.2,0.3,0.4c0,0.1,0,0.2-0.1,0.5c0,0.2-0.1,0.4-0.1,0.6L137.2,50.8L137.2,50.8z"/>
			</g>
		</g>
		<g>
			<g>
				<path class="st2" d="M168,51.2c-0.1-0.2-0.2-0.5-0.4-1c-0.2-0.5-0.5-1.1-0.8-1.8s-0.6-1.5-1-2.4c-0.4-0.9-0.7-1.8-1.1-2.7h-10.5
					l-3.3,8h-5.1c0.1-0.3,0.4-0.9,0.8-1.9c0.4-1,0.9-2.2,1.6-3.7c0.6-1.5,1.3-3.1,2.1-4.9c0.8-1.8,1.6-3.6,2.4-5.5
					c0.8-1.9,1.6-3.7,2.4-5.5c0.8-1.8,1.5-3.4,2.1-4.9s1.1-2.7,1.6-3.7c0.4-1,0.7-1.6,0.8-1.9c0.1,0.3,0.4,0.9,0.8,1.9
					c0.4,1,1,2.2,1.6,3.7s1.3,3.1,2.1,4.9c0.8,1.8,1.6,3.6,2.4,5.5c0.8,1.9,1.6,3.7,2.4,5.5c0.8,1.8,1.5,3.4,2.1,4.9
					c0.6,1.5,1.1,2.7,1.6,3.7c0.4,1,0.7,1.6,0.8,1.9L168,51.2L168,51.2z M155.9,38.9h6.9l-3-7.3c0,0-0.1-0.2-0.2-0.6
					c-0.1-0.4-0.2-0.7-0.3-0.9c-0.1,0.3-0.1,0.6-0.3,0.9c-0.1,0.4-0.2,0.5-0.2,0.6L155.9,38.9z"/>
			</g>
			<g>
				<path class="st2" d="M173.1,51.6H168c-0.2,0-0.3-0.1-0.4-0.2c-0.1-0.2-0.2-0.5-0.4-1.1c-0.2-0.5-0.5-1.1-0.8-1.8
					c-0.3-0.7-0.6-1.5-1-2.4l-1-2.5h-10l-3.2,7.8c-0.1,0.1-0.2,0.2-0.4,0.2h-5.1c-0.1,0-0.3-0.1-0.3-0.2c-0.1-0.1-0.1-0.3,0-0.4
					c0.1-0.3,0.4-0.9,0.8-1.9c0.4-1,0.9-2.2,1.6-3.7c0.6-1.5,1.3-3.1,2.1-4.9c0.8-1.8,1.6-3.6,2.4-5.5c0.8-1.9,1.6-3.7,2.4-5.5
					c0.8-1.8,1.5-3.4,2.1-4.9c0.6-1.5,1.1-2.7,1.6-3.7c0.4-1,0.7-1.6,0.8-1.9c0.1-0.3,0.6-0.3,0.7,0c0.1,0.3,0.4,0.9,0.8,1.9
					c0.4,1,1,2.2,1.6,3.7c0.6,1.5,1.3,3.1,2.1,4.9c0.8,1.8,1.6,3.6,2.4,5.5c0.8,1.9,1.6,3.7,2.4,5.5c0.8,1.8,1.5,3.4,2.1,4.9
					c0.6,1.5,1.1,2.7,1.6,3.7c0.4,1,0.7,1.6,0.8,1.9c0.1,0.1,0,0.3,0,0.4C173.4,51.6,173.2,51.6,173.1,51.6z M168.3,50.8h4.2
					c-0.1-0.3-0.3-0.8-0.6-1.3c-0.4-1-0.9-2.2-1.6-3.7c-0.6-1.5-1.3-3.1-2.1-4.9c-0.8-1.8-1.6-3.6-2.4-5.5c-0.8-1.9-1.6-3.7-2.4-5.5
					c-0.8-1.8-1.5-3.4-2.1-4.9c-0.6-1.5-1.2-2.7-1.6-3.7c-0.2-0.4-0.3-0.7-0.4-1c-0.1,0.3-0.3,0.6-0.4,1c-0.4,1-0.9,2.2-1.6,3.7
					c-0.6,1.5-1.3,3.1-2.1,4.9c-0.8,1.8-1.6,3.6-2.4,5.5c-0.8,1.9-1.6,3.7-2.4,5.5c-0.8,1.8-1.5,3.4-2.1,4.9s-1.1,2.7-1.6,3.7
					c-0.2,0.6-0.4,1-0.6,1.3h4.2l3.2-7.8c0.1-0.1,0.2-0.2,0.4-0.2h10.5c0.2,0,0.3,0.1,0.4,0.2l1.1,2.7c0.4,0.9,0.7,1.7,1,2.4
					s0.6,1.3,0.8,1.8C168.1,50.4,168.2,50.6,168.3,50.8z M162.9,39.3h-6.9c-0.1,0-0.3-0.1-0.3-0.2c-0.1-0.1-0.1-0.3,0-0.4l3-7.2
					c0-0.1,0.1-0.2,0.2-0.6c0.1-0.3,0.2-0.6,0.2-0.9c0-0.2,0.2-0.3,0.4-0.3c0.2,0,0.4,0.1,0.4,0.3c0,0.3,0.1,0.6,0.2,0.9
					c0.1,0.2,0.1,0.4,0.2,0.5c0,0,0,0,0,0.1l3,7.3c0,0.1,0,0.3,0,0.4C163.1,39.2,163,39.3,162.9,39.3z M156.5,38.5h5.8l-2.8-6.7
					c0,0-0.1-0.1-0.1-0.2c0,0.1,0,0.1,0,0.1c0,0,0,0,0,0.1L156.5,38.5z"/>
			</g>
		</g>
		<g>
			<g>
				<path class="st2" d="M198.4,49c-0.3,0.2-0.8,0.5-1.4,0.8c-0.6,0.3-1.3,0.6-2.1,0.9c-0.8,0.3-1.8,0.5-2.8,0.7
					c-1,0.2-2.1,0.3-3.3,0.3c-2.4,0-4.5-0.4-6.4-1.2c-1.9-0.8-3.5-1.9-4.8-3.3c-1.3-1.4-2.3-3-3-4.9c-0.7-1.9-1-3.8-1-5.9
					c0-2.3,0.4-4.4,1.3-6.3c0.8-1.9,2-3.6,3.4-5c1.4-1.4,3.1-2.5,5-3.3c1.9-0.8,4-1.2,6.1-1.2c0.8,0,1.7,0.1,2.5,0.2
					c0.9,0.1,1.7,0.3,2.4,0.5c0.7,0.2,1.4,0.4,2,0.7c0.6,0.3,1,0.5,1.2,0.8c-0.3,0.4-0.4,0.7-0.6,1c-0.1,0.3-0.3,0.5-0.4,0.8
					c-0.2,0.3-0.3,0.6-0.5,0.9c-0.2,0.3-0.4,0.8-0.8,1.4c-0.3-0.2-0.7-0.4-1.2-0.6c-0.5-0.2-1-0.3-1.5-0.4c-0.5-0.1-1-0.2-1.6-0.2
					s-1-0.1-1.4-0.1c-1.6,0-3,0.3-4.3,0.9c-1.3,0.6-2.5,1.4-3.4,2.3s-1.7,2.1-2.3,3.4c-0.5,1.3-0.8,2.6-0.8,4c0,1.3,0.3,2.6,0.8,3.9
					c0.5,1.3,1.2,2.4,2.2,3.4c0.9,1,2,1.8,3.3,2.4c1.3,0.6,2.7,0.9,4.3,0.9c0.9,0,1.8-0.1,2.6-0.3c0.8-0.2,1.6-0.4,2.2-0.6
					c0.6-0.2,1.2-0.4,1.6-0.7c0.4-0.2,0.6-0.4,0.7-0.5L198.4,49z"/>
			</g>
			<g>
				<path class="st2" d="M188.7,52c-2.4,0-4.7-0.4-6.6-1.3c-1.9-0.8-3.6-2-4.9-3.4c-1.3-1.4-2.4-3.1-3.1-5s-1.1-3.9-1.1-6
					c0-2.3,0.4-4.5,1.3-6.5c0.9-2,2-3.7,3.5-5.1c1.5-1.4,3.2-2.6,5.1-3.4c2.7-1.1,5.8-1.5,8.9-1c0.9,0.1,1.7,0.3,2.5,0.5
					c0.8,0.2,1.5,0.4,2,0.7c0.6,0.3,1.1,0.6,1.4,0.9c0.1,0.1,0.1,0.3,0,0.5c-0.2,0.4-0.4,0.7-0.6,0.9c-0.1,0.3-0.3,0.5-0.4,0.8
					c-0.2,0.3-0.3,0.6-0.5,0.9c-0.2,0.3-0.4,0.8-0.8,1.4c-0.1,0.1-0.1,0.2-0.3,0.2c-0.1,0-0.2,0-0.3-0.1c-0.3-0.2-0.7-0.4-1.1-0.5
					c-0.4-0.2-0.9-0.3-1.4-0.4c-0.5-0.1-1-0.2-1.5-0.2c-0.5-0.1-1-0.1-1.4-0.1c-1.5,0-2.9,0.3-4.2,0.8c-1.3,0.6-2.4,1.3-3.3,2.2
					c-0.9,0.9-1.7,2-2.2,3.2c-0.5,1.2-0.8,2.5-0.8,3.8c0,1.3,0.3,2.6,0.7,3.8c0.5,1.2,1.2,2.3,2.1,3.2c0.9,0.9,2,1.7,3.2,2.3
					c1.2,0.6,2.6,0.9,4.1,0.9c0.9,0,1.7-0.1,2.5-0.3c0.8-0.2,1.5-0.4,2.2-0.6c0.6-0.2,1.1-0.4,1.5-0.6c0.3-0.2,0.5-0.3,0.5-0.3
					c0.1-0.1,0.2-0.2,0.3-0.2c0.2,0,0.3,0.1,0.4,0.2l2.2,4.6c0.1,0.2,0,0.4-0.1,0.5c-0.4,0.2-0.8,0.5-1.4,0.8
					c-0.6,0.3-1.4,0.6-2.2,0.9c-0.8,0.3-1.8,0.5-2.8,0.7C191.1,51.9,189.9,52,188.7,52z M189.3,20.8c-2.1,0-4.1,0.4-6,1.1
					c-1.9,0.8-3.5,1.8-4.9,3.2s-2.5,3-3.3,4.9c-0.8,1.9-1.2,4-1.2,6.2c0,2,0.3,4,1,5.8c0.7,1.8,1.7,3.4,2.9,4.8
					c1.3,1.4,2.8,2.4,4.7,3.2s4,1.2,6.3,1.2c1.1,0,2.2-0.1,3.2-0.3c1-0.2,1.9-0.4,2.7-0.7c0.8-0.3,1.5-0.5,2.1-0.8
					c0.4-0.2,0.8-0.4,1.1-0.6l-1.8-3.9c-0.1,0.1-0.2,0.1-0.3,0.2c-0.4,0.2-1,0.5-1.6,0.7c-0.7,0.2-1.4,0.4-2.3,0.6
					c-0.9,0.2-1.8,0.3-2.7,0.3c-1.6,0-3.1-0.3-4.4-0.9c-1.3-0.6-2.5-1.4-3.4-2.5c-1-1-1.7-2.2-2.3-3.5s-0.8-2.7-0.8-4.1
					c0-1.4,0.3-2.8,0.8-4.1c0.6-1.3,1.4-2.5,2.3-3.5c1-1,2.2-1.8,3.6-2.4c1.4-0.6,2.9-0.9,4.5-0.9c0.4,0,0.9,0,1.5,0.1
					c0.5,0.1,1.1,0.1,1.6,0.2c0.5,0.1,1.1,0.2,1.5,0.4c0.3,0.1,0.7,0.3,0.9,0.4c0.2-0.4,0.4-0.8,0.6-1c0.2-0.3,0.4-0.6,0.5-0.9
					c0.2-0.3,0.3-0.5,0.4-0.8c0.1-0.2,0.2-0.4,0.4-0.7c-0.2-0.2-0.5-0.3-0.9-0.5c-0.6-0.2-1.2-0.5-1.9-0.7c-0.7-0.2-1.5-0.4-2.4-0.5
					C190.9,20.8,190.1,20.8,189.3,20.8z"/>
			</g>
		</g>
	</g>
	<g>
		<path class="st2" d="M136.8,57.4c0-0.4,0.1-0.7,0.3-0.9c0.2-0.2,0.5-0.3,0.8-0.3c0,0,0,0,0.1,0l2.9,0.1v0.5h-2.9
			c-0.1,0-0.3,0-0.3,0.1c-0.1,0.1-0.1,0.1-0.1,0.2c0,0.1,0,0.1,0,0.3v1.8l3,0.1v0.5l-3,0.1v1.8c0,0.2,0,0.3,0.1,0.3
			c0.1,0.1,0.1,0.1,0.2,0.1c0.1,0,0.2,0,0.3,0h2.8v0.5l-2.8,0.2c0,0-0.1,0-0.1,0c-0.7,0-1.1-0.4-1.1-1.1L136.8,57.4L136.8,57.4z"/>
		<path class="st2" d="M143.1,62.9v-6.6h0.7l3.5,5.4v-5.4h0.7v6.6h-0.7l-3.6-5.4v5.4H143.1z"/>
		<path class="st2" d="M150.5,61.5c-0.1-0.3-0.1-0.6-0.2-0.9c0-0.3,0-0.7,0-1.2c0-0.5,0-0.9,0.1-1.2s0.2-0.7,0.3-1
			c0.3-0.7,0.9-1,1.7-1c0.2,0,0.6,0,1.1,0.1c0.5,0,0.9,0.1,1.2,0.2v0.5c-0.1,0-0.2,0-0.5,0c-0.2,0-0.5,0-0.7,0c-0.4,0-0.8,0-1.2,0
			c-0.6,0-1,0.2-1.2,0.6s-0.3,1.1-0.3,2.1s0.1,1.7,0.3,2.1c0.2,0.4,0.6,0.6,1.2,0.6c0.2,0,0.5,0,0.7-0.1c0.3-0.1,0.5-0.1,0.7-0.2
			l0.3-0.1V60h-1.5v-0.5c0.6-0.2,1.1-0.2,1.6-0.2c0.2,0,0.4,0,0.6,0v3.5h-0.5l-0.1-0.4c-0.6,0.3-1.2,0.5-1.8,0.5c0,0,0,0-0.1,0
			c-0.3,0-0.6-0.1-0.9-0.2c-0.3-0.1-0.5-0.3-0.6-0.5C150.7,62.1,150.6,61.8,150.5,61.5z"/>
		<path class="st2" d="M157.2,57.4c0-0.4,0.1-0.7,0.3-0.9c0.2-0.2,0.5-0.3,0.8-0.3c0,0,0,0,0.1,0l2.9,0.1v0.5h-2.9
			c-0.1,0-0.3,0-0.3,0.1c-0.1,0.1-0.1,0.1-0.1,0.2c0,0.1,0,0.1,0,0.3v1.8l3,0.1v0.5l-3,0.1v1.8c0,0.2,0,0.3,0.1,0.3
			c0.1,0.1,0.1,0.1,0.2,0.1c0.1,0,0.2,0,0.3,0h2.8v0.5l-2.8,0.2c0,0-0.1,0-0.1,0c-0.7,0-1.1-0.4-1.1-1.1L157.2,57.4L157.2,57.4z"/>
		<path class="st2" d="M163.6,62.9v-6.6h0.7l3.5,5.4v-5.4h0.7v6.6h-0.7l-3.6-5.4v5.4H163.6z"/>
		<path class="st2" d="M170.9,62.9v-6.6h0.7v3.1h3.2v-3.1h0.7v6.6h-0.7V60h-3.2v2.9H170.9z"/>
		<path class="st2" d="M177.6,62.9l2.4-6.6h0.7l2.3,6.6h-0.8l-0.6-1.9H179l-0.6,1.9H177.6z M179.3,60.3h2.2l-1.1-3.1L179.3,60.3z"/>
		<path class="st2" d="M185,62.9v-6.6h2.8c1,0,1.5,0.7,1.5,2c0,1.2-0.4,1.8-1.2,1.9l1.4,2.7h-0.7l-1.4-2.7l-1.8-0.1v2.9H185z
			 M185.7,59.4h2.2c0.4,0,0.6-0.1,0.7-0.3c0.1-0.2,0.2-0.6,0.2-1c0-0.5-0.1-0.8-0.2-1c-0.2-0.2-0.4-0.3-0.6-0.3h-2.2V59.4z"/>
		<path class="st2" d="M191.7,62.9v-6.6h0.7v6.6H191.7z"/>
		<path class="st2" d="M194.5,62.9l2.4-6.6h0.7l2.3,6.6h-0.8l-0.6-1.9H196l-0.6,1.9H194.5z M196.2,60.3h2.2l-1.1-3.1L196.2,60.3z"/>
	</g>
</g>
</svg>
